<svg xmlns="http://www.w3.org/2000/svg" width="40" height="40" viewBox="0 0 40 40">
    <g fill="none">
        <path d="M0 0H40V40H0z"/>
        <path fill="#F89D2F" d="M25.68 11.19l1.006-3.92-2.429-.593-.97 3.817c-.643-.153-1.302-.305-1.961-.441l.971-3.834-2.428-.594-.989 3.902c-.537-.119-1.058-.238-1.56-.356v-.017l-3.366-.815-.642 2.545s1.804.407 1.77.424c.988.238 1.162.882 1.127 1.391l-1.145 4.462c.07.017.087.051 0 .017l-1.595 6.243c-.122.289-.434.73-1.11.56.017.034-1.77-.424-1.77-.424l-1.214 2.731 3.174.78c.59.153 1.162.289 1.735.442l-1.006 3.952 2.428.594 1.006-3.919c.66.17 1.318.34 1.943.492l-.989 3.902 2.429.594 1.006-3.953c4.162.764 7.285.458 8.586-3.223 1.058-2.952-.052-4.665-2.238-5.785 1.613-.356 2.81-1.391 3.122-3.495.434-2.884-1.804-4.445-4.891-5.48zm-8.17 14.063l1.336-5.242c1.647.407 6.955 1.205 6.157 4.292-.746 2.952-5.845 1.357-7.493.95zm1.96-7.65l1.214-4.751c1.37.34 5.794.967 5.082 3.766-.693 2.698-4.926 1.323-6.296.984z"/>
    </g>
</svg>
