<svg xmlns="http://www.w3.org/2000/svg" width="64" height="64" viewBox="0 0 64 64">
    <g fill="none" fill-rule="nonzero">
        <path d="M0 0h64v64H0z"/>
        <path fill="#0079BE" d="M36.432 50.098c10.14.048 19.394-8.27 19.394-18.388 0-11.065-9.254-18.714-19.394-18.71h-8.726C17.446 12.996 9 20.647 9 31.71c0 10.12 8.446 18.436 18.706 18.388h8.726z"/>
        <path fill="#FFF" d="M27.748 14.533c-9.376.003-16.974 7.603-16.976 16.983.002 9.378 7.6 16.977 16.976 16.98 9.378-.003 16.977-7.602 16.978-16.98-.001-9.38-7.6-16.98-16.978-16.983zm-10.76 16.983a10.78 10.78 0 0 1 6.907-10.045v20.088a10.776 10.776 0 0 1-6.908-10.043zm14.61 10.047V21.47a10.775 10.775 0 0 1 6.913 10.046A10.779 10.779 0 0 1 31.6 41.563z"/>
        <path fill="#0079BE" d="M36.432 50.098c10.14.048 19.394-8.27 19.394-18.388 0-11.065-9.254-18.714-19.394-18.71h-8.726C17.446 12.996 9 20.647 9 31.71c0 10.12 8.446 18.436 18.706 18.388h8.726z"/>
        <path fill="#FFF" d="M27.748 14.533c-9.376.003-16.974 7.603-16.976 16.983.002 9.378 7.6 16.977 16.976 16.98 9.378-.003 16.977-7.602 16.978-16.98-.001-9.38-7.6-16.98-16.978-16.983zm-10.76 16.983a10.78 10.78 0 0 1 6.907-10.045v20.088a10.776 10.776 0 0 1-6.908-10.043zm14.61 10.047V21.47a10.775 10.775 0 0 1 6.913 10.046A10.779 10.779 0 0 1 31.6 41.563z"/>
    </g>
</svg>
