<svg width="63" height="23" viewBox="0 0 63 23" fill="none" xmlns="http://www.w3.org/2000/svg">
<path d="M22.4308 19.7168C22.0531 20.0077 21.6559 20.2725 21.242 20.5093C21.2112 20.5246 21.1838 20.5462 21.1617 20.5726C21.1396 20.599 21.1231 20.6298 21.1135 20.6629C21.1038 20.696 21.1012 20.7307 21.1056 20.7649C21.11 20.7991 21.1215 20.832 21.1393 20.8615C21.1592 20.9025 21.1906 20.9368 21.2297 20.9603C21.2688 20.9838 21.3139 20.9953 21.3595 20.9936C21.4025 21.0071 21.4486 21.0071 21.4915 20.9936C21.9272 20.7456 22.3442 20.466 22.739 20.157C22.7771 20.1355 22.8092 20.1048 22.8325 20.0677C22.8557 20.0307 22.8694 19.9885 22.8723 19.9448C22.8752 19.9012 22.8673 19.8575 22.8491 19.8177C22.831 19.7779 22.8032 19.7432 22.7684 19.7168C22.7224 19.6745 22.6621 19.651 22.5996 19.651C22.5371 19.651 22.4769 19.6745 22.4308 19.7168Z" fill="#333333"/>
<path d="M19.4805 21.1843L18.7761 21.4191L18.1009 21.5805C18.0358 21.5979 17.9798 21.6394 17.9443 21.6967C17.9089 21.754 17.8966 21.8227 17.9101 21.8887C17.9231 21.9458 17.9547 21.9969 17.9998 22.0341C18.045 22.0713 18.1012 22.0924 18.1596 22.0942L18.8641 21.9181L19.5979 21.6833C19.6302 21.6737 19.66 21.6573 19.6853 21.6353C19.7107 21.6132 19.731 21.5859 19.745 21.5553C19.7589 21.5247 19.766 21.4914 19.766 21.4578C19.766 21.4242 19.7587 21.391 19.7447 21.3604C19.7257 21.3064 19.6897 21.26 19.642 21.2282C19.5944 21.1964 19.5377 21.181 19.4805 21.1843Z" fill="#333333"/>
<path d="M16.1931 21.8595H15.9876C15.5757 21.8569 15.1642 21.8324 14.7548 21.7861C14.7209 21.782 14.6865 21.785 14.6537 21.7947C14.621 21.8045 14.5906 21.8209 14.5644 21.843C14.5383 21.865 14.5169 21.8921 14.5017 21.9227C14.4865 21.9533 14.4777 21.9868 14.476 22.0209C14.4714 22.0864 14.4915 22.1513 14.5322 22.2029C14.5729 22.2544 14.6313 22.289 14.6961 22.2997C15.1251 22.3461 15.5562 22.3706 15.9876 22.3731H16.1931C16.2271 22.3732 16.2608 22.3663 16.2921 22.3528C16.3234 22.3394 16.3516 22.3197 16.3749 22.2949C16.3983 22.2702 16.4164 22.2409 16.428 22.2089C16.4396 22.177 16.4446 22.1429 16.4426 22.109C16.4426 22.0428 16.4163 21.9793 16.3695 21.9325C16.3227 21.8857 16.2593 21.8595 16.1931 21.8595Z" fill="#333333"/>
<path d="M24.6613 17.1629C24.4076 17.5706 24.123 17.9582 23.8101 18.3224C23.7635 18.3691 23.7373 18.4325 23.7373 18.4985C23.7373 18.5645 23.7635 18.6278 23.8101 18.6746C23.8668 18.696 23.9294 18.696 23.9862 18.6746C24.0588 18.6712 24.1273 18.6396 24.177 18.5865C24.5033 18.2069 24.8024 17.8047 25.0722 17.3831C25.1068 17.326 25.1184 17.2579 25.1048 17.1925C25.0912 17.1272 25.0533 17.0694 24.9989 17.0308C24.9361 17.009 24.8676 17.0103 24.8057 17.0346C24.7438 17.0588 24.6926 17.1043 24.6613 17.1629Z" fill="#333333"/>
<path d="M26.9508 10.5586C26.8829 10.5651 26.8194 10.595 26.7712 10.6432C26.723 10.6914 26.6931 10.7549 26.6866 10.8228C26.6866 11.2924 26.5839 11.7621 26.5105 12.2023C26.5042 12.2362 26.5051 12.2711 26.5129 12.3046C26.5208 12.3382 26.5356 12.3698 26.5562 12.3974C26.5769 12.4249 26.6031 12.4479 26.6331 12.4649C26.6631 12.4818 26.6963 12.4924 26.7306 12.4959C26.7912 12.4933 26.849 12.4701 26.8944 12.43C26.9398 12.3899 26.9701 12.3355 26.9801 12.2757C27.0535 11.8061 27.1122 11.3364 27.1563 10.8081C27.1605 10.7481 27.1415 10.6888 27.1033 10.6424C27.065 10.5959 27.0105 10.566 26.9508 10.5586Z" fill="#333333"/>
<path d="M26.3786 13.9341C26.3143 13.9151 26.2452 13.9211 26.1853 13.9511C26.1253 13.9811 26.079 14.0327 26.0557 14.0956C25.9186 14.5588 25.7569 15.0144 25.5714 15.4605C25.5569 15.4912 25.5489 15.5245 25.5477 15.5584C25.5466 15.5923 25.5524 15.6261 25.5648 15.6577C25.5771 15.6893 25.5958 15.718 25.6197 15.7422C25.6435 15.7663 25.672 15.7853 25.7035 15.798H25.8062C25.8571 15.7983 25.907 15.783 25.9489 15.7541C25.9909 15.7253 26.023 15.6843 26.041 15.6366C26.2413 15.158 26.4128 14.668 26.5547 14.169C26.5501 14.1173 26.5311 14.068 26.5 14.0265C26.4689 13.985 26.4269 13.953 26.3786 13.9341Z" fill="#333333"/>
<path d="M4.09987 10.4704C4.10922 10.4316 4.10964 10.3911 4.1011 10.3521C4.09255 10.3131 4.07527 10.2765 4.05054 10.2451C4.02582 10.2137 3.9943 10.1884 3.95836 10.1709C3.92241 10.1535 3.88298 10.1444 3.84303 10.1444C3.80308 10.1444 3.76365 10.1535 3.72771 10.1709C3.69176 10.1884 3.66024 10.2137 3.63552 10.2451C3.6108 10.2765 3.59351 10.3131 3.58497 10.3521C3.57643 10.3911 3.57684 10.4316 3.5862 10.4704C3.5862 10.9401 3.68893 11.4391 3.77699 11.9381C3.78773 11.999 3.8207 12.0537 3.86952 12.0917C3.91833 12.1296 3.9795 12.1481 4.04116 12.1435C4.07416 12.1382 4.10576 12.1264 4.13408 12.1086C4.1624 12.0909 4.18687 12.0676 4.20603 12.0403C4.2252 12.0129 4.23867 11.9819 4.24564 11.9492C4.25261 11.9166 4.25295 11.8828 4.24663 11.85C4.2026 11.4097 4.1439 10.9107 4.09987 10.4704Z" fill="#333333"/>
<path d="M4.74571 13.8462C4.73511 13.8144 4.71835 13.785 4.69639 13.7596C4.67442 13.7343 4.64769 13.7136 4.61771 13.6986C4.58772 13.6836 4.55508 13.6746 4.52165 13.6723C4.48821 13.6699 4.45463 13.6741 4.42283 13.6847C4.39103 13.6953 4.36163 13.7121 4.3363 13.7341C4.31098 13.756 4.29023 13.7828 4.27524 13.8127C4.26025 13.8427 4.25131 13.8754 4.24893 13.9088C4.24656 13.9422 4.25079 13.9758 4.26139 14.0076C4.41034 14.4816 4.59683 14.9429 4.81909 15.3872C4.83763 15.4334 4.87036 15.4725 4.91257 15.4989C4.95477 15.5252 5.00427 15.5375 5.05391 15.534H5.15665C5.21605 15.4999 5.26085 15.4452 5.2825 15.3802C5.30415 15.3153 5.30115 15.2446 5.27406 15.1817C5.06995 14.7481 4.89348 14.3021 4.74571 13.8462Z" fill="#333333"/>
<path d="M12.8616 21.4043C12.3959 21.2808 11.9397 21.1238 11.4967 20.9347C11.466 20.9202 11.4326 20.9122 11.3987 20.911C11.3648 20.9099 11.331 20.9157 11.2994 20.928C11.2679 20.9404 11.2391 20.9591 11.215 20.9829C11.1908 21.0068 11.1718 21.0353 11.1591 21.0668C11.1384 21.1312 11.1419 21.2011 11.1689 21.2632C11.1959 21.3253 11.2446 21.3755 11.3059 21.4043C11.7842 21.6012 12.2743 21.7678 12.7735 21.9033C12.8349 21.9004 12.8933 21.8762 12.9387 21.8348C12.9842 21.7935 13.0138 21.7376 13.0224 21.6768C13.0311 21.616 13.0184 21.554 12.9863 21.5016C12.9543 21.4492 12.905 21.4096 12.8469 21.3896L12.8616 21.4043Z" fill="#333333"/>
<path d="M6.27178 16.7814C6.22203 16.7409 6.15983 16.7188 6.09566 16.7188C6.0315 16.7188 5.9693 16.7409 5.91955 16.7814C5.87202 16.8307 5.84546 16.8964 5.84546 16.9649C5.84546 17.0333 5.87202 17.0991 5.91955 17.1483C6.20742 17.5546 6.52117 17.9418 6.85884 18.3077C6.88292 18.3347 6.91228 18.3564 6.9451 18.3716C6.97792 18.3867 7.01349 18.395 7.04963 18.3958C7.10309 18.3603 7.14414 18.309 7.16704 18.249C7.21457 18.1998 7.24113 18.134 7.24113 18.0656C7.24113 17.9971 7.21457 17.9314 7.16704 17.8821C6.84556 17.5346 6.54654 17.1669 6.27178 16.7814Z" fill="#333333"/>
<path d="M8.59087 19.2175C8.54411 19.1709 8.48078 19.1448 8.41476 19.1448C8.34873 19.1448 8.2854 19.1709 8.23864 19.2175C8.19111 19.2668 8.16455 19.3326 8.16455 19.401C8.16455 19.4694 8.19111 19.5352 8.23864 19.5845C8.62674 19.8931 9.03356 20.1773 9.45678 20.4357H9.58887C9.63239 20.4358 9.67527 20.4251 9.71367 20.4046C9.75208 20.3841 9.78483 20.3545 9.80901 20.3183C9.85562 20.2715 9.88178 20.2082 9.88178 20.1422C9.88178 20.0761 9.85562 20.0128 9.80901 19.966C9.38987 19.7385 8.98323 19.4887 8.59087 19.2175Z" fill="#333333"/>
<path d="M45.487 21.6539C45.2495 21.6068 45.0144 21.548 44.7826 21.4777L44.1808 21.2723C44.1166 21.2532 44.0475 21.2593 43.9875 21.2892C43.9276 21.3192 43.8813 21.3709 43.858 21.4337C43.8464 21.4665 43.8413 21.5012 43.8431 21.5359C43.845 21.5706 43.8536 21.6046 43.8686 21.636C43.8836 21.6674 43.9047 21.6954 43.9305 21.7187C43.9564 21.7419 43.9866 21.7598 44.0194 21.7713L44.6505 21.9621L45.4577 22.1675C45.5154 22.1537 45.5667 22.1208 45.6034 22.0742C45.6401 22.0276 45.66 21.97 45.66 21.9107C45.66 21.8514 45.6401 21.7938 45.6034 21.7472C45.5667 21.7006 45.5154 21.6677 45.4577 21.6539H45.487Z" fill="#333333"/>
<path d="M52.121 20.8907C51.6834 21.0849 51.2321 21.2468 50.7708 21.375C50.7079 21.3983 50.6563 21.4446 50.6263 21.5046C50.5963 21.5645 50.5902 21.6336 50.6093 21.6979C50.6221 21.751 50.6521 21.7985 50.6945 21.8329C50.7369 21.8674 50.7895 21.887 50.8441 21.8887C51.3444 21.7507 51.8347 21.5791 52.3118 21.375C52.3436 21.3625 52.3726 21.3438 52.3972 21.3201C52.4218 21.2963 52.4414 21.268 52.4551 21.2366C52.4687 21.2053 52.476 21.1715 52.4766 21.1374C52.4772 21.1032 52.4711 21.0692 52.4585 21.0374C52.446 21.0056 52.4273 20.9766 52.4036 20.952C52.3799 20.9274 52.3515 20.9078 52.3202 20.8941C52.2888 20.8805 52.2551 20.8732 52.2209 20.8726C52.1867 20.872 52.1528 20.8781 52.121 20.8907Z" fill="#333333"/>
<path d="M36.828 10.9108C36.828 10.7641 36.7106 10.6907 36.5345 10.676C36.4697 10.6868 36.4113 10.7214 36.3705 10.7729C36.3298 10.8245 36.3098 10.8893 36.3144 10.9549C36.3144 11.4539 36.4171 11.9529 36.5051 12.4225C36.5156 12.4808 36.5464 12.5335 36.5921 12.5711C36.6378 12.6088 36.6954 12.6289 36.7546 12.628C36.7874 12.628 36.8199 12.6215 36.8501 12.609C36.8804 12.5965 36.9079 12.5781 36.9311 12.5549C36.9542 12.5317 36.9726 12.5042 36.9852 12.474C36.9977 12.4437 37.0041 12.4112 37.0041 12.3785C36.9308 11.8355 36.8574 11.3511 36.828 10.9108Z" fill="#333333"/>
<path d="M57.2726 16.7814C57.0034 17.1803 56.7041 17.5581 56.3774 17.9115C56.3524 17.9335 56.3324 17.9606 56.3187 17.991C56.3049 18.0213 56.2979 18.0543 56.2979 18.0876C56.2979 18.1209 56.3049 18.1538 56.3187 18.1842C56.3324 18.2146 56.3524 18.2417 56.3774 18.2637C56.3994 18.2887 56.4265 18.3087 56.4569 18.3224C56.4872 18.3361 56.5202 18.3432 56.5535 18.3432C56.5868 18.3432 56.6197 18.3361 56.6501 18.3224C56.6805 18.3087 56.7076 18.2887 56.7296 18.2637C57.0666 17.892 57.3803 17.4999 57.6689 17.0896C57.6939 17.0676 57.7139 17.0405 57.7276 17.0101C57.7413 16.9797 57.7484 16.9468 57.7484 16.9135C57.7484 16.8802 57.7413 16.8472 57.7276 16.8169C57.7139 16.7865 57.6939 16.7594 57.6689 16.7374C57.6411 16.7118 57.6081 16.6924 57.5722 16.6806C57.5363 16.6689 57.4983 16.6649 57.4607 16.6691C57.4232 16.6733 57.3869 16.6855 57.3545 16.7048C57.322 16.7242 57.2941 16.7503 57.2726 16.7814Z" fill="#333333"/>
<path d="M59.0921 13.5379C59.0594 13.5268 59.0247 13.5225 58.9902 13.5254C58.9558 13.5284 58.9223 13.5384 58.8919 13.555C58.8616 13.5716 58.835 13.5943 58.8139 13.6216C58.7927 13.649 58.7775 13.6805 58.7692 13.7141C58.6326 14.167 58.4609 14.6087 58.2556 15.0349C58.2382 15.0654 58.2275 15.0991 58.2241 15.134C58.2207 15.1688 58.2246 15.204 58.2357 15.2372C58.2468 15.2705 58.2647 15.301 58.2884 15.3268C58.312 15.3526 58.3408 15.3732 58.373 15.3872H58.4757C58.5253 15.3908 58.5748 15.3785 58.617 15.3521C58.6593 15.3257 58.692 15.2866 58.7105 15.2404C58.9269 14.7633 59.1131 14.2731 59.2682 13.7728C59.2675 13.72 59.25 13.6689 59.2184 13.6267C59.1867 13.5845 59.1425 13.5535 59.0921 13.5379Z" fill="#333333"/>
<path d="M54.9683 19.1591C54.6014 19.4526 54.2051 19.7314 53.8089 19.9956C53.7792 20.0122 53.7533 20.0348 53.7326 20.0618C53.712 20.0888 53.6971 20.1197 53.6888 20.1527C53.6806 20.1857 53.6792 20.22 53.6847 20.2536C53.6902 20.2871 53.7025 20.3192 53.7208 20.3479C53.745 20.384 53.7778 20.4137 53.8162 20.4342C53.8546 20.4547 53.8974 20.4653 53.941 20.4653H54.0731C54.4967 20.1969 54.9035 19.9029 55.2912 19.5847C55.3378 19.5379 55.364 19.4746 55.364 19.4086C55.364 19.3425 55.3378 19.2792 55.2912 19.2324C55.2538 19.1852 55.2014 19.1522 55.1427 19.1389C55.084 19.1255 55.0224 19.1327 54.9683 19.1591Z" fill="#333333"/>
<path d="M38.9121 17.251C38.8735 17.1965 38.8157 17.1587 38.7504 17.1451C38.6851 17.1315 38.617 17.1431 38.5599 17.1776C38.5302 17.1942 38.5043 17.2168 38.4836 17.2438C38.463 17.2708 38.4481 17.3018 38.4398 17.3347C38.4316 17.3677 38.4302 17.402 38.4357 17.4356C38.4412 17.4692 38.4535 17.5012 38.4718 17.5299C38.7502 17.9492 39.0541 18.3511 39.3817 18.7333C39.4314 18.7864 39.4999 18.818 39.5725 18.8214C39.63 18.8385 39.6912 18.8385 39.7486 18.8214C39.793 18.7706 39.8175 18.7054 39.8175 18.6379C39.8175 18.5705 39.793 18.5053 39.7486 18.4545C39.4388 18.0757 39.1591 17.6734 38.9121 17.251Z" fill="#333333"/>
<path d="M37.4447 14.1983C37.4243 14.1327 37.3792 14.0777 37.3189 14.0448C37.2587 14.012 37.188 14.0038 37.1218 14.0222C37.059 14.0455 37.0073 14.0918 36.9774 14.1518C36.9474 14.2117 36.9413 14.2808 36.9604 14.3451C37.1028 14.8439 37.2743 15.3339 37.4741 15.8127C37.497 15.8555 37.5308 15.8916 37.572 15.9173C37.6132 15.943 37.6603 15.9576 37.7089 15.9595H37.8116C37.8431 15.9467 37.8716 15.9277 37.8954 15.9036C37.9193 15.8795 37.938 15.8507 37.9503 15.8191C37.9627 15.7875 37.9685 15.7537 37.9673 15.7198C37.9662 15.6859 37.9582 15.6526 37.9437 15.6219C37.7823 15.1229 37.6061 14.6679 37.4447 14.1983Z" fill="#333333"/>
<path d="M41.143 19.7167C41.0963 19.6701 41.0329 19.6439 40.9669 19.6439C40.9009 19.6439 40.8376 19.6701 40.7908 19.7167C40.7442 19.7635 40.718 19.8268 40.718 19.8928C40.718 19.9588 40.7442 20.0222 40.7908 20.0689C41.1873 20.3784 41.6095 20.6534 42.053 20.8908C42.0907 20.9055 42.1326 20.9055 42.1704 20.8908C42.2175 20.8904 42.2637 20.8781 42.3048 20.855C42.3459 20.8319 42.3804 20.7988 42.4052 20.7587C42.4336 20.6975 42.4388 20.6281 42.4199 20.5633C42.401 20.4986 42.3593 20.4428 42.3025 20.4065C41.9025 20.1999 41.5154 19.9696 41.143 19.7167Z" fill="#333333"/>
<path d="M48.8335 21.7715C48.3956 21.8295 47.9544 21.8589 47.5127 21.8595H47.4099C47.3423 21.8594 47.2773 21.8852 47.2281 21.9316C47.179 21.978 47.1495 22.0415 47.1458 22.109C47.1458 22.1791 47.1736 22.2463 47.2231 22.2958C47.2727 22.3454 47.3399 22.3732 47.4099 22.3732H47.5127C47.9739 22.3731 48.4347 22.3437 48.8922 22.2851C48.9597 22.2777 49.0217 22.2446 49.0655 22.1927C49.1092 22.1408 49.1312 22.074 49.1271 22.0063C49.1234 21.9715 49.1129 21.9378 49.0961 21.9071C49.0794 21.8764 49.0567 21.8494 49.0294 21.8275C49.0021 21.8057 48.9707 21.7895 48.9371 21.7799C48.9035 21.7702 48.8683 21.7674 48.8335 21.7715Z" fill="#333333"/>
<path d="M62.3063 4.70272H61.9541C60.9795 4.65915 60.0354 4.34954 59.2243 3.80746C58.5888 3.39233 57.9324 3.01024 57.2577 2.6627C56.5472 2.28502 55.8116 1.95648 55.0562 1.67938C53.6312 1.19741 52.1526 0.891826 50.6533 0.769446C48.4491 0.481208 46.2098 0.630831 44.0636 1.20974C41.1763 1.77659 38.5531 3.2711 36.5933 5.46589V5.65668C36.434 5.46373 36.2186 5.32522 35.9769 5.26042L34.9789 5.04027C34.2304 4.82013 33.5113 4.5853 32.7041 4.39451C31.9388 4.19691 31.1358 4.19691 30.3705 4.39451C29.6954 4.57063 29.0203 4.7761 28.3452 4.98157L27.4352 5.26042C27.2441 5.31266 27.0612 5.39172 26.8922 5.49524C24.9419 3.29067 22.3232 1.78546 19.4366 1.20974C17.2904 0.630831 15.0511 0.481208 12.8469 0.769446C11.3476 0.891826 9.86898 1.19741 8.44401 1.67938C7.70436 1.9488 6.9836 2.2675 6.28658 2.63335C5.6118 2.98089 4.95539 3.36298 4.31995 3.7781C3.50883 4.32018 2.56475 4.6298 1.59014 4.67336H1.22323C1.15561 4.67491 1.08907 4.69061 1.02789 4.71943C0.966708 4.74826 0.912241 4.78958 0.867998 4.84074C0.823756 4.89189 0.790718 4.95175 0.771012 5.01645C0.751307 5.08115 0.745371 5.14926 0.753587 5.21639C0.753587 6.15568 0.753587 7.09497 0.753587 7.97555C0.747583 8.05269 0.756887 8.13025 0.780963 8.20378C0.805039 8.27731 0.843413 8.34535 0.893878 8.404C0.944342 8.46265 1.0059 8.51075 1.07502 8.54552C1.14413 8.58029 1.21944 8.60106 1.29661 8.60663C1.59999 8.65536 1.87805 8.80504 2.0858 9.03143C2.29355 9.25782 2.41883 9.54769 2.44137 9.85413C2.44137 9.85413 2.5441 10.4705 3.33663 10.3825C4.12915 10.2944 4.02642 9.44319 4.02642 9.44319C4.09468 7.82044 4.71025 6.26858 5.77291 5.04027C6.86824 3.81822 8.2883 2.93259 9.86762 2.48658C11.4829 2.01531 13.1606 1.79262 14.8429 1.82615C16.8032 1.77209 18.7544 2.11143 20.5814 2.82414C22.098 3.33494 23.4817 4.17722 24.6321 5.28977C25.319 5.90298 25.8777 6.64622 26.2758 7.47655C26.3879 7.82731 26.4762 8.18525 26.54 8.54793C26.54 8.68001 26.54 8.8121 26.54 8.90016V9.17901L26.7455 9.26707C27.0096 9.38448 27.4352 9.26707 27.9929 8.7534C28.5506 8.23972 28.1397 7.82878 27.9929 7.28576C27.9414 7.17129 27.8973 7.05364 27.8609 6.93353C27.8479 6.8366 27.8727 6.73841 27.93 6.65921C27.9874 6.58001 28.0729 6.52585 28.1691 6.50791L28.6387 6.37582L29.3579 6.12633C30.2941 5.82495 31.2809 5.71258 32.261 5.79572C33.2411 5.87886 34.1948 6.15586 35.067 6.61065C35.1499 6.63465 35.2211 6.68826 35.2671 6.76131C35.3131 6.83436 35.3307 6.92176 35.3165 7.00691C35.2921 7.17512 35.2578 7.34175 35.2137 7.5059C35.1622 7.69818 35.1279 7.89463 35.111 8.09296C35.111 8.60663 35.5513 8.87081 36.153 9.16434L36.2557 9.34045H36.5493C36.6814 9.34045 36.8135 9.23772 36.8722 8.73872C36.9257 8.36572 37.0091 7.99762 37.1217 7.63799C37.544 6.73637 38.1545 5.93567 38.9122 5.28977C40.0649 4.18032 41.4479 3.33849 42.9629 2.82414C44.7715 2.11913 46.702 1.77992 48.6426 1.82615C50.3298 1.79158 52.0125 2.01428 53.6326 2.48658C55.2087 2.93991 56.6268 3.82436 57.7273 5.04027C58.7918 6.26627 59.4031 7.82053 59.4591 9.44319C59.4824 9.68158 59.5576 9.91199 59.6793 10.1183C59.5325 10.1183 59.4004 10.2064 59.4004 10.3531C59.4004 10.8228 59.2977 11.2924 59.2243 11.8208C59.2154 11.8866 59.2316 11.9533 59.2697 12.0077C59.3077 12.0621 59.3649 12.1001 59.4298 12.1143C59.4911 12.1147 59.5505 12.0925 59.5966 12.0519C59.6426 12.0113 59.672 11.9551 59.6793 11.8941C59.7673 11.3951 59.826 10.8961 59.87 10.4265C59.9483 10.4796 60.0397 10.5101 60.1342 10.5146C60.9267 10.6026 61.0148 9.98621 61.0148 9.98621C61.1616 9.35513 61.4404 8.84146 62.1742 8.73872C62.2661 8.73926 62.3567 8.71769 62.4385 8.67583C62.5203 8.63396 62.5907 8.57303 62.644 8.49819C62.6972 8.42335 62.7317 8.33679 62.7445 8.24582C62.7572 8.15485 62.7479 8.06215 62.7173 7.97555C62.7173 7.03626 62.7173 6.09697 62.7173 5.15768C62.7118 5.04608 62.6678 4.93982 62.5929 4.8569C62.5181 4.77398 62.4168 4.71951 62.3063 4.70272Z" fill="#333333"/>
</svg>
