<svg xmlns="http://www.w3.org/2000/svg" width="40" height="40" viewBox="0 0 40 40">
  <g id="maestro-new" transform="translate(-52 -66)">
    <rect id="bg-svg" width="40" height="40" transform="translate(52 66)" fill="none"/>
    <g id="Group_2920" data-name="Group 2920" transform="translate(16.535 56.2)">
      <g id="Group_2915" data-name="Group 2915" transform="translate(37.964 18.982)">
        <rect id="Rectangle_284" data-name="Rectangle 284" width="9.465" height="17.008" transform="translate(12.769 2.313)" fill="#7375cf"/>
        <path id="Path_4950" data-name="Path 4950" d="M243.308,280.816a10.8,10.8,0,0,1,4.131-8.5,10.817,10.817,0,1,0,0,17.008A10.8,10.8,0,0,1,243.308,280.816Z" transform="translate(-229.938 -269.999)" fill="#eb001b"/>
        <path id="Path_4951" data-name="Path 4951" d="M342.49,327.33v-.348h.14v-.071h-.358v.071h.14v.348Zm.694,0v-.42h-.11l-.126.289-.126-.289h-.11v.42h.077v-.317l.118.273h.08l.118-.274v.317Z" transform="translate(-308.52 -309.81)" fill="#00a2e5"/>
        <path id="Path_4952" data-name="Path 4952" d="M305.686,280.817a10.817,10.817,0,0,1-17.5,8.5,10.818,10.818,0,0,0,0-17.008,10.816,10.816,0,0,1,17.5,8.5Z" transform="translate(-270.684 -270)" fill="#00a2e5"/>
      </g>
    </g>
  </g>
</svg>
