<svg xmlns="http://www.w3.org/2000/svg" xmlns:xlink="http://www.w3.org/1999/xlink" width="39.997" height="39.997" viewBox="0 0 39.997 39.997">
  <defs>
    <clipPath id="clip-path">
      <rect id="Rectangle_3462" data-name="Rectangle 3462" width="33.259" height="10.624" fill="none"/>
    </clipPath>
  </defs>
  <g id="visa" transform="translate(5402 10636)">
    <path id="Path_403" data-name="Path 403" d="M0,0H40V40H0Z" transform="translate(-5402 -10636)" fill="none" fill-rule="evenodd"/>
    <g id="Group_9965" data-name="Group 9965" transform="translate(-5399 -10621)">
      <g id="Group_9964" data-name="Group 9964" clip-path="url(#clip-path)">
        <path id="Path_15719" data-name="Path 15719" d="M12.685.189,8.168,10.464H5.316l-2.037-8.2a1.106,1.106,0,0,0-.628-.9A11.263,11.263,0,0,0,0,.487l.068-.3H4.66A1.231,1.231,0,0,1,5.89,1.236L6.943,7.183,9.85.189Zm11.081,6.92C23.816,4.4,20,4.248,20.042,3.036c.014-.368.375-.76,1.157-.861a5.133,5.133,0,0,1,2.654.46l.5-2.179A7.294,7.294,0,0,0,21.839,0c-2.667,0-4.565,1.4-4.608,3.4-.039,1.48,1.308,2.3,2.324,2.8,1.044.5,1.392.827,1.382,1.277-.018.69-.853.994-1.63,1.006a5.659,5.659,0,0,1-2.763-.649l-.52,2.252a8.219,8.219,0,0,0,2.994.546c2.835,0,4.709-1.379,4.748-3.516m7,3.355h2.5L31.225.189h-2.3a1.25,1.25,0,0,0-1.159.754l-4.183,9.522h2.833L27,8.929h3.462ZM27.8,6.824l1.475-3.858.764,3.858ZM16.541.189,14.166,10.464h-2.7L13.843.189Z" transform="translate(0 -0.001)" fill="#1434cb"/>
      </g>
    </g>
  </g>
</svg>
